{"title":"Mission Impossible.Rogue Nation.(2K15).  + 5.1-(US).mkv","uid":12657345,"size":10347995391,"categoryP":"video","categoryS":"hd___movies","magnet":"?xt=urn:btih:29454dd9b9d6522b0a650a8147ac7ede28279f4b&amp;dn=Mission+Impossible.Rogue+Nation.%282K15%29.800p%40DD%2B+5.1-%28US%29.mkv&amp;tr=udp%3A%2F%2Ftracker.leechers-paradise.org%3A6969&amp;tr=udp%3A%2F%2Fzer0day.ch%3A1337&amp;tr=udp%3A%2F%2Fopen.demonii.com%3A1337&amp;tr=udp%3A%2F%2Ftracker.coppersurfer.tk%3A6969&amp;tr=udp%3A%2F%2Fexodus.desync.com%3A6969","seeders":0,"leechers":1,"uploader":"Tyr3ll","files":1,"time":1446246481,"description":"Mission Impossible.Rogue Nation.(2K15).  + 5.1-(US).mkv\r\n\r\n 131 min  |  Action, Adventure, Thriller\r\n\r\nSee imdb right here : \nhttp://www.imdb.com/title/tt2381249/\r\n\r\nSource : N/A Private stream...\r\n\r\nGeneral/Final purpose :\r\nHD Rip from private streamable Preview version by Master dubbing as Public Preview for all.\r\n\r\nVideo codec : H263/Simple pass &amp; reencoding @ 12000 Kbps\r\nRef(0.325) @ Bits/(Pixel*Frame)\r\n\r\nScreen Resolution : Recentred to 1920 x 800 @ Full screen (2.3950) \r\n\r\nAudio codec : Upmixed simple AC3-5.1 448 Kbps to Dolby Digital+-5.1\r\naka E-AC3 @ 768 Kbps\r\nGuess, Original track in English should be encoded as Dts-HDMA 7.1...\r\n\r\nFormat : Mkv\r\n\r\nStreamable : yes\r\n\r\nLanguage : US English\r\nSub : same\r\n\r\nFinal size : 9,63 Go\r\n\r\nQuality : Over all, acceptable and quite close to Normal anyway.\r\nBut no perfect as well, of course.\r\nPossible micro pixelation on certain dark scenes or shadows sometimes as it is a simple Preview.\r\nWhatever...quite watchable so.\r\n(May depend also of your hardware capacity...)\r\n\r\nA BD9 and others will come once we will get the original BD50 version from this movie. (ASAP...)\r\n\r\nFor the moment, we already let you the opportunity to watch out this one so.\r\n\r\nRecommanded Players :\r\n\r\nPot Player, MPC-BE 1.4.5, DVDFab Media Player Final 2.5.0.5\r\n\r\n----------------------------------------------------------------------------\r\n\r\nSee complete details below :\r\n\r\n\r\n\r\nGeneral\r\nUnique ID                      : N/A\r\nComplete name                  : Mission Impossible.Rogue Nation.(2K15).  + 5.1-(US).mkv\r\nFormat                         : Matroska\r\nFormat version                 : Version 4 / Version 2\r\nFile size                      : 9.64 GiB\r\nDuration                       : 2h 11mn\r\nOverall bit rate               : 10.5 Mbps\r\nEncoded date                   : UTC 2015-10-29 19:11:00\r\nWriting application            : Lavf57.3.100\r\nWriting library                : Lavf57.3.100\r\n\r\nVideo\r\nID                             : 1\r\nFormat                         : H.263\r\nCodec ID                       : V_MS/VFW/FOURCC / H263\r\nDuration                       : 2h 11mn\r\nBit rate                       : 9 493 Kbps\r\nWidth                          : 1 916 pixels\r\nHeight                         : 800 pixels\r\nDisplay aspect ratio           : 2.40:1\r\nFrame rate mode                : Constant\r\nFrame rate                     : 23.976 fps\r\nBit depth                      : 8 bits\r\nCompression mode               : Lossy\r\nBits/(Pixel*Frame)             : 0.258\r\nStream size                    : 8.74 GiB (91%)\r\nWriting library                : Lavc57.5.100 h263p\r\nLanguage                       : English\r\nDefault                        : Yes\r\nForced                         : No\r\nDURATION                       : 02:11:47.162000000\r\n\r\nAudio\r\nID                             : 2\r\nFormat                         : E-AC-3\r\nFormat/Info                    : Audio Coding 3\r\nFormat settings, Endianness    : Big\r\nCodec ID                       : A_EAC3\r\nDuration                       : 2h 11mn\r\nBit rate mode                  : Constant\r\nBit rate                       : 768 Kbps\r\nChannel(s)                     : 6 channels\r\nChannel positions              : Front: L C R, Side: L R, LFE\r\nSampling rate                  : 48.0 KHz\r\nBit depth                      : 32 bits\r\nCompression mode               : Lossy\r\nStream size                    : 724 MiB (7%)\r\nWriting library                : Lavc57.5.100 eac3\r\nLanguage                       : English\r\nDefault                        : Yes\r\nForced                         : No\r\nDURATION                       : 02:11:33.120000000\r\n\r\nText\r\nID                             : 3\r\nFormat                         : UTF-8\r\nCodec ID                       : S_TEXT/UTF8\r\nCodec ID/Info                  : UTF-8 Plain Text\r\nLanguage                       : English\r\nDefault                        : No\r\nForced                         : No\r\nDURATION                       : 02:04:39.154000000\r\n\r\nMenu\r\n00:00:00.000                   : :1\r\n00:09:52.000                   : :2\r\n00:20:44.000                   : :3\r\n00:25:31.000                   : :4\r\n00:31:59.000                   : :5\r\n00:40:02.000                   : :6\r\n00:49:34.000                   : :7\r\n01:01:00.000                   : :8\r\n01:09:50.000                   : :9\r\n01:20:20.000                   : :10\r\n01:29:28.000                   : :11\r\n01:38:31.000                   : :12\r\n01:48:18.000                   : :13\r\n01:57:13.000                   : :14\r\n02:03:01.000                   : :15\r\n\r\n\r\nEnjoy and seed, please, as long as you can, Ty.\r\n\r\nBest regards","torrent":{"xt":"urn:btih:29454dd9b9d6522b0a650a8147ac7ede28279f4b","amp;dn":"Mission+Impossible.Rogue+Nation.%282K15%29.800p%40DD%2B+5.1-%28US%29.mkv","amp;tr":["udp%3A%2F%2Ftracker.leechers-paradise.org%3A6969","udp%3A%2F%2Fzer0day.ch%3A1337","udp%3A%2F%2Fopen.demonii.com%3A1337","udp%3A%2F%2Ftracker.coppersurfer.tk%3A6969","udp%3A%2F%2Fexodus.desync.com%3A6969"],"infoHash":"29454dd9b9d6522b0a650a8147ac7ede28279f4b","infoHashBuffer":{"type":"Buffer","data":[41,69,77,217,185,214,82,43,10,101,10,129,71,172,126,222,40,39,159,75]},"announce":[],"urlList":[]}}